<svg width="235" height="235" viewBox="0 0 235 235" fill="none" xmlns="http://www.w3.org/2000/svg">
<g clip-path="url(#clip0_1071_4607)">
<path d="M235 0H0V235H235V0Z" fill="#FFFCE9"/>
<path d="M146.736 45.4195H102.852L87.8136 45.3921V189.551L103.145 189.578V117.431H131.857V189.606H147.188V45.4195H146.738H146.736ZM103.143 102.102V60.7513H131.855V102.102H103.143Z" fill="black"/>
<path d="M190.052 227.394H190.43V228.073H190.052V228.774H189.294V228.073H187.779V227.503L188.977 225.363H190.05V227.396L190.052 227.394ZM189.294 227.394V226.05L188.574 227.394H189.294Z" fill="black"/>
<path d="M197 226.503C196.812 226.252 196.579 226.127 196.301 226.127C196.18 226.127 196.066 226.15 195.963 226.199C195.859 226.248 195.769 226.313 195.694 226.395C195.62 226.477 195.561 226.577 195.518 226.691C195.475 226.806 195.453 226.93 195.453 227.061C195.453 227.192 195.475 227.321 195.518 227.437C195.561 227.552 195.62 227.65 195.696 227.737C195.773 227.821 195.863 227.887 195.965 227.936C196.066 227.985 196.178 228.009 196.297 228.009C196.558 228.009 196.793 227.887 197 227.646V228.696L196.916 228.727C196.791 228.776 196.675 228.812 196.566 228.833C196.458 228.857 196.35 228.867 196.245 228.867C196.027 228.867 195.82 228.821 195.622 228.733C195.424 228.645 195.248 228.52 195.097 228.357C194.946 228.197 194.825 228.005 194.733 227.784C194.641 227.562 194.596 227.319 194.596 227.057C194.596 226.795 194.641 226.554 194.731 226.334C194.821 226.115 194.942 225.927 195.093 225.768C195.244 225.61 195.42 225.486 195.62 225.396C195.82 225.308 196.029 225.263 196.248 225.263C196.374 225.263 196.497 225.277 196.617 225.306C196.738 225.336 196.863 225.379 196.999 225.439V226.499L197 226.503Z" fill="black"/>
<path d="M202.691 226.113H201.379V225.361H203.956L202.159 228.772H201.26L202.691 226.111V226.113Z" fill="black"/>
<path d="M207.822 227.065C207.822 226.793 207.856 226.546 207.92 226.325C207.985 226.103 208.077 225.913 208.194 225.757C208.312 225.6 208.453 225.479 208.615 225.392C208.778 225.306 208.958 225.263 209.154 225.263C209.35 225.263 209.528 225.306 209.69 225.392C209.855 225.479 209.994 225.6 210.112 225.757C210.229 225.913 210.319 226.103 210.384 226.325C210.448 226.546 210.482 226.793 210.482 227.065C210.482 227.337 210.448 227.584 210.384 227.805C210.319 228.026 210.227 228.216 210.112 228.375C209.994 228.534 209.855 228.655 209.69 228.741C209.526 228.827 209.348 228.87 209.154 228.87C208.96 228.87 208.778 228.827 208.615 228.741C208.453 228.655 208.314 228.534 208.194 228.375C208.077 228.216 207.985 228.026 207.92 227.805C207.856 227.584 207.822 227.337 207.822 227.065ZM208.629 227.065C208.629 227.216 208.641 227.353 208.666 227.476C208.692 227.599 208.727 227.707 208.772 227.797C208.817 227.887 208.872 227.958 208.937 228.007C209.001 228.056 209.072 228.081 209.154 228.081C209.236 228.081 209.303 228.056 209.369 228.007C209.434 227.958 209.489 227.887 209.534 227.797C209.579 227.707 209.612 227.599 209.638 227.476C209.663 227.353 209.675 227.216 209.675 227.065C209.675 226.914 209.663 226.781 209.638 226.656C209.612 226.53 209.577 226.423 209.534 226.334C209.489 226.246 209.434 226.176 209.369 226.127C209.305 226.078 209.232 226.052 209.154 226.052C209.076 226.052 209.001 226.078 208.937 226.127C208.872 226.176 208.817 226.246 208.772 226.334C208.727 226.423 208.692 226.53 208.666 226.656C208.641 226.781 208.629 226.918 208.629 227.065Z" fill="black"/>
<path d="M217.071 228.774H214.545L215.325 227.897C215.53 227.664 215.691 227.468 215.808 227.306C215.926 227.145 216.012 227.008 216.069 226.896C216.126 226.785 216.161 226.695 216.175 226.624C216.188 226.556 216.196 226.497 216.196 226.448C216.196 226.397 216.188 226.346 216.173 226.299C216.157 226.25 216.135 226.209 216.104 226.17C216.073 226.133 216.037 226.101 215.994 226.08C215.951 226.058 215.9 226.047 215.842 226.047C215.73 226.047 215.644 226.086 215.581 226.164C215.518 226.242 215.487 226.34 215.487 226.458C215.487 226.491 215.491 226.54 215.499 226.603H214.608C214.608 226.403 214.637 226.223 214.698 226.06C214.759 225.898 214.841 225.757 214.951 225.639C215.058 225.522 215.188 225.432 215.336 225.367C215.485 225.304 215.648 225.271 215.826 225.271C216.004 225.271 216.163 225.3 216.312 225.361C216.46 225.422 216.588 225.506 216.697 225.614C216.807 225.721 216.891 225.851 216.952 226.001C217.013 226.15 217.044 226.313 217.044 226.487C217.044 226.675 217.007 226.847 216.934 227.006C216.862 227.165 216.744 227.327 216.582 227.492L216.061 228.021H217.077V228.772L217.071 228.774Z" fill="black"/>
<path d="M14.6209 226.693C14.6425 226.697 14.662 226.697 14.6777 226.697H14.7169C14.8187 226.697 14.9029 226.663 14.9675 226.597C15.0322 226.53 15.0635 226.444 15.0635 226.338C15.0635 226.233 15.0341 226.152 14.9734 226.09C14.9127 226.027 14.8363 225.994 14.7423 225.994C14.6425 225.994 14.5622 226.029 14.5015 226.101C14.4408 226.174 14.4094 226.268 14.4094 226.381H13.6555C13.675 226.203 13.7162 226.045 13.7788 225.906C13.8415 225.766 13.9218 225.651 14.0178 225.555C14.1137 225.459 14.2293 225.387 14.3585 225.338C14.4878 225.289 14.6327 225.263 14.7913 225.263C14.9499 225.263 15.087 225.287 15.2143 225.334C15.3396 225.381 15.4493 225.447 15.5394 225.533C15.6295 225.62 15.698 225.723 15.747 225.845C15.7959 225.966 15.8194 226.103 15.8194 226.254C15.8194 226.417 15.79 226.55 15.7333 226.654C15.6765 226.757 15.5942 226.847 15.4904 226.924C15.651 226.979 15.7763 227.075 15.8664 227.216C15.9565 227.357 16.0015 227.529 16.0015 227.735C16.0015 227.903 15.9702 228.058 15.9095 228.197C15.8488 228.336 15.7626 228.455 15.653 228.555C15.5433 228.655 15.4121 228.731 15.2613 228.786C15.1105 228.841 14.944 228.868 14.7639 228.868C14.523 228.868 14.3037 228.818 14.1098 228.714C13.9159 228.61 13.7593 228.447 13.6437 228.224C13.5908 228.124 13.5556 228.024 13.538 227.925C13.5203 227.825 13.5105 227.725 13.5105 227.621H14.3174C14.3233 227.782 14.3663 227.903 14.4466 227.985C14.5269 228.068 14.6346 228.109 14.7717 228.109C14.9166 228.109 15.0224 228.068 15.089 227.981C15.1555 227.897 15.1888 227.793 15.1888 227.67C15.1888 227.523 15.1477 227.41 15.0674 227.335C14.9871 227.261 14.8912 227.222 14.7795 227.222C14.7521 227.222 14.7247 227.223 14.7012 227.229C14.6758 227.233 14.6483 227.239 14.617 227.245V226.689L14.6209 226.693Z" fill="black"/>
<path d="M16.3815 227.065C16.3815 226.793 16.4147 226.546 16.4794 226.325C16.544 226.103 16.636 225.913 16.7535 225.757C16.871 225.6 17.012 225.479 17.1746 225.392C17.3371 225.306 17.5173 225.263 17.7131 225.263C17.909 225.263 18.0872 225.306 18.2497 225.392C18.4142 225.479 18.5532 225.6 18.6707 225.757C18.7882 225.913 18.8783 226.103 18.943 226.325C19.0076 226.546 19.0409 226.793 19.0409 227.065C19.0409 227.337 19.0076 227.584 18.943 227.805C18.8783 228.026 18.7863 228.216 18.6707 228.375C18.5532 228.534 18.4142 228.655 18.2497 228.741C18.0852 228.827 17.907 228.87 17.7131 228.87C17.5192 228.87 17.3371 228.827 17.1746 228.741C17.012 228.655 16.873 228.534 16.7535 228.375C16.636 228.216 16.544 228.026 16.4794 227.805C16.4147 227.584 16.3815 227.337 16.3815 227.065ZM17.1902 227.065C17.1902 227.216 17.202 227.353 17.2275 227.476C17.2529 227.599 17.2882 227.707 17.3332 227.797C17.3782 227.887 17.4331 227.958 17.4977 228.007C17.5623 228.056 17.6328 228.081 17.7151 228.081C17.7973 228.081 17.8639 228.056 17.9305 228.007C17.9951 227.958 18.05 227.887 18.095 227.797C18.14 227.707 18.1733 227.599 18.1988 227.476C18.2242 227.353 18.236 227.216 18.236 227.065C18.236 226.914 18.2242 226.781 18.1988 226.656C18.1733 226.53 18.1381 226.423 18.095 226.334C18.05 226.246 17.9951 226.176 17.9305 226.127C17.8659 226.078 17.7934 226.052 17.7151 226.052C17.6367 226.052 17.5623 226.078 17.4977 226.127C17.4331 226.176 17.3782 226.246 17.3332 226.334C17.2882 226.423 17.2529 226.53 17.2275 226.656C17.202 226.781 17.1902 226.918 17.1902 227.065Z" fill="black"/>
<path d="M223.712 46.2793V45.9014H224.392V46.2793H225.093V47.0372H224.392V48.5529H223.822L221.681 47.3544V46.2813H223.714L223.712 46.2793ZM223.712 47.0372H222.369L223.712 47.7579V47.0372Z" fill="black"/>
<path d="M222.821 39.3293C222.57 39.5173 222.445 39.7504 222.445 40.0285C222.445 40.1499 222.469 40.2635 222.518 40.3673C222.567 40.4711 222.631 40.5611 222.713 40.6356C222.796 40.71 222.896 40.7687 223.009 40.8118C223.125 40.8549 223.248 40.8764 223.379 40.8764C223.51 40.8764 223.64 40.8549 223.755 40.8118C223.871 40.7687 223.969 40.71 224.055 40.6336C224.139 40.5572 224.206 40.4671 224.255 40.3653C224.304 40.2635 224.327 40.1518 224.327 40.0324C224.327 39.7719 224.206 39.5369 223.965 39.3293H225.014L225.046 39.4136C225.095 39.5389 225.13 39.6544 225.152 39.7641C225.175 39.8718 225.185 39.9795 225.185 40.0853C225.185 40.3026 225.14 40.5102 225.052 40.708C224.964 40.9058 224.838 41.0821 224.676 41.2328C224.515 41.3836 224.323 41.5051 224.102 41.5971C223.881 41.6891 223.638 41.7342 223.375 41.7342C223.113 41.7342 222.872 41.6891 222.653 41.5991C222.433 41.509 222.245 41.3876 222.087 41.2368C221.928 41.086 221.805 40.9097 221.715 40.71C221.627 40.5102 221.581 40.3007 221.581 40.0813C221.581 39.956 221.595 39.8326 221.625 39.7132C221.654 39.5918 221.697 39.4664 221.758 39.3313H222.817L222.821 39.3293Z" fill="black"/>
<path d="M222.431 33.6384V34.9505H221.679V32.3733L225.091 34.171V35.0699L222.429 33.6384H222.431Z" fill="black"/>
<path d="M223.381 28.5095C223.109 28.5095 222.862 28.4762 222.641 28.4116C222.42 28.347 222.23 28.2549 222.073 28.1374C221.916 28.0199 221.795 27.8789 221.709 27.7164C221.623 27.5538 221.58 27.3737 221.58 27.1778C221.58 26.982 221.623 26.8038 221.709 26.6413C221.795 26.4768 221.916 26.3377 222.073 26.2202C222.23 26.1027 222.42 26.0126 222.641 25.948C222.862 25.8834 223.109 25.8501 223.381 25.8501C223.653 25.8501 223.9 25.8834 224.121 25.948C224.343 26.0126 224.533 26.1047 224.691 26.2202C224.85 26.3377 224.971 26.4768 225.058 26.6413C225.144 26.8058 225.187 26.984 225.187 27.1778C225.187 27.3717 225.144 27.5538 225.058 27.7164C224.971 27.8789 224.85 28.018 224.691 28.1374C224.533 28.2549 224.343 28.347 224.121 28.4116C223.9 28.4762 223.653 28.5095 223.381 28.5095ZM223.381 27.7027C223.532 27.7027 223.669 27.6909 223.792 27.6655C223.916 27.64 224.024 27.6048 224.114 27.5597C224.204 27.5147 224.274 27.4598 224.323 27.3952C224.372 27.3306 224.398 27.2601 224.398 27.1778C224.398 27.0956 224.372 27.029 224.323 26.9624C224.274 26.8978 224.204 26.843 224.114 26.7979C224.024 26.7529 223.916 26.7196 223.792 26.6941C223.669 26.6687 223.532 26.6569 223.381 26.6569C223.23 26.6569 223.097 26.6687 222.972 26.6941C222.847 26.7196 222.739 26.7548 222.651 26.7979C222.563 26.843 222.492 26.8978 222.443 26.9624C222.394 27.0271 222.369 27.0995 222.369 27.1778C222.369 27.2562 222.394 27.3306 222.443 27.3952C222.492 27.4598 222.563 27.5147 222.651 27.5597C222.739 27.6048 222.847 27.64 222.972 27.6655C223.097 27.6909 223.234 27.7027 223.381 27.7027Z" fill="black"/>
<path d="M225.093 19.2583V21.7846L224.216 21.0052C223.983 20.7995 223.787 20.6389 223.624 20.5214C223.464 20.4039 223.326 20.3178 223.215 20.261C223.103 20.2042 223.013 20.1689 222.943 20.1552C222.874 20.1415 222.815 20.1337 222.766 20.1337C222.715 20.1337 222.665 20.1415 222.618 20.1572C222.569 20.1729 222.527 20.1944 222.488 20.2257C222.451 20.2571 222.42 20.2923 222.398 20.3354C222.377 20.3785 222.365 20.4294 222.365 20.4882C222.365 20.5998 222.404 20.6859 222.482 20.7486C222.561 20.8113 222.659 20.8426 222.776 20.8426C222.809 20.8426 222.858 20.8387 222.921 20.8309V21.7219C222.721 21.7219 222.541 21.6925 222.379 21.6318C222.216 21.5711 222.075 21.4889 221.958 21.3792C221.84 21.2715 221.75 21.1422 221.685 20.9934C221.623 20.8446 221.589 20.682 221.589 20.5038C221.589 20.3256 221.619 20.167 221.68 20.0182C221.74 19.8693 221.824 19.742 221.932 19.6324C222.04 19.5227 222.169 19.4385 222.32 19.3778C222.469 19.3171 222.631 19.2857 222.806 19.2857C222.994 19.2857 223.166 19.3229 223.325 19.3954C223.483 19.4679 223.646 19.5854 223.81 19.7479L224.339 20.2688V19.2524H225.091L225.093 19.2583Z" fill="black"/>
<path d="M223.011 221.711C223.015 221.689 223.015 221.67 223.015 221.654V221.615C223.015 221.513 222.982 221.429 222.915 221.364C222.849 221.299 222.762 221.268 222.657 221.268C222.551 221.268 222.471 221.297 222.408 221.358C222.345 221.419 222.312 221.495 222.312 221.589C222.312 221.689 222.347 221.769 222.42 221.83C222.492 221.891 222.586 221.922 222.7 221.922V222.676C222.521 222.657 222.363 222.615 222.224 222.553C222.085 222.49 221.969 222.41 221.873 222.314C221.777 222.218 221.705 222.102 221.656 221.973C221.607 221.844 221.581 221.699 221.581 221.54C221.581 221.382 221.605 221.245 221.652 221.117C221.699 220.992 221.766 220.882 221.852 220.792C221.938 220.702 222.042 220.634 222.163 220.585C222.285 220.536 222.422 220.512 222.572 220.512C222.735 220.512 222.868 220.542 222.972 220.598C223.076 220.655 223.166 220.737 223.242 220.841C223.297 220.681 223.393 220.555 223.534 220.465C223.675 220.375 223.847 220.33 224.053 220.33C224.221 220.33 224.376 220.361 224.515 220.422C224.654 220.483 224.774 220.569 224.873 220.679C224.973 220.788 225.05 220.92 225.105 221.07C225.159 221.221 225.187 221.388 225.187 221.568C225.187 221.809 225.136 222.028 225.032 222.222C224.928 222.416 224.766 222.572 224.542 222.688C224.443 222.741 224.343 222.776 224.243 222.794C224.143 222.811 224.043 222.821 223.939 222.821V222.014C224.1 222.008 224.221 221.965 224.304 221.885C224.386 221.805 224.427 221.697 224.427 221.56C224.427 221.415 224.386 221.309 224.3 221.243C224.215 221.176 224.112 221.143 223.988 221.143C223.841 221.143 223.728 221.184 223.653 221.264C223.579 221.344 223.54 221.44 223.54 221.552C223.54 221.579 223.542 221.607 223.548 221.63C223.552 221.656 223.557 221.683 223.563 221.715H223.007L223.011 221.711Z" fill="#FFFCE9"/>
<path d="M223.381 219.95C223.109 219.95 222.862 219.917 222.641 219.852C222.42 219.788 222.23 219.696 222.073 219.578C221.916 219.461 221.795 219.32 221.709 219.157C221.623 218.995 221.58 218.814 221.58 218.619C221.58 218.423 221.623 218.244 221.709 218.082C221.795 217.917 221.916 217.778 222.073 217.661C222.23 217.543 222.42 217.453 222.641 217.389C222.862 217.324 223.109 217.291 223.381 217.291C223.653 217.291 223.9 217.324 224.121 217.389C224.343 217.453 224.533 217.545 224.691 217.661C224.85 217.778 224.971 217.917 225.058 218.082C225.144 218.246 225.187 218.425 225.187 218.619C225.187 218.812 225.144 218.995 225.058 219.157C224.971 219.32 224.85 219.459 224.691 219.578C224.533 219.696 224.343 219.788 224.121 219.852C223.9 219.917 223.653 219.95 223.381 219.95ZM223.381 219.141C223.532 219.141 223.669 219.13 223.792 219.104C223.916 219.079 224.024 219.043 224.114 218.998C224.204 218.953 224.274 218.899 224.323 218.834C224.372 218.769 224.398 218.699 224.398 218.617C224.398 218.534 224.372 218.468 224.323 218.401C224.274 218.337 224.204 218.282 224.114 218.237C224.024 218.192 223.916 218.158 223.792 218.133C223.669 218.107 223.532 218.096 223.381 218.096C223.23 218.096 223.097 218.107 222.972 218.133C222.847 218.158 222.739 218.194 222.651 218.237C222.563 218.282 222.492 218.337 222.443 218.401C222.394 218.466 222.369 218.538 222.369 218.617C222.369 218.695 222.394 218.769 222.443 218.834C222.492 218.899 222.563 218.953 222.651 218.998C222.739 219.043 222.847 219.079 222.972 219.104C223.097 219.13 223.234 219.141 223.381 219.141Z" fill="#FFFCE9"/>
<path d="M42.3509 12.5156H41.973V11.8361H42.3509V11.135H43.1088V11.8361H44.6245V12.406L43.426 14.5464H42.3529V12.5137L42.3509 12.5156ZM43.1088 12.5156V13.8591L43.8295 12.5156H43.1088Z" fill="black"/>
<path d="M35.4027 13.4067C35.5907 13.6573 35.8238 13.7827 36.1019 13.7827C36.2233 13.7827 36.3369 13.7592 36.4407 13.7102C36.5444 13.6613 36.6345 13.5966 36.7089 13.5144C36.7834 13.4321 36.8421 13.3323 36.8852 13.2187C36.9283 13.1031 36.9498 12.9798 36.9498 12.8486C36.9498 12.7173 36.9283 12.5881 36.8852 12.4726C36.8421 12.357 36.7834 12.2591 36.707 12.1729C36.6306 12.0887 36.5405 12.0221 36.4387 11.9732C36.3369 11.9242 36.2252 11.9007 36.1058 11.9007C35.8453 11.9007 35.6103 12.0221 35.4027 12.263V11.2133L35.487 11.182C35.6123 11.1331 35.7278 11.0978 35.8375 11.0763C35.9452 11.0528 36.0529 11.043 36.1587 11.043C36.376 11.043 36.5836 11.088 36.7814 11.1761C36.9792 11.2643 37.1554 11.3896 37.3062 11.5521C37.457 11.7127 37.5784 11.9046 37.6705 12.1259C37.7625 12.3472 37.8076 12.5901 37.8076 12.8525C37.8076 13.1149 37.7625 13.3558 37.6724 13.5751C37.5824 13.7944 37.4609 13.9824 37.3102 14.1411C37.1594 14.2997 36.9831 14.4231 36.7834 14.5131C36.5836 14.6013 36.3741 14.6463 36.1547 14.6463C36.0294 14.6463 35.906 14.6326 35.7866 14.6032C35.6652 14.5738 35.5398 14.5308 35.4047 14.4701V13.4106L35.4027 13.4067Z" fill="black"/>
<path d="M29.7118 13.7964H31.0239V14.5484H28.4467L30.2445 11.137H31.1434L29.7118 13.7983V13.7964Z" fill="black"/>
<path d="M24.583 12.8466C24.583 13.1188 24.5497 13.3656 24.485 13.5868C24.4204 13.8081 24.3284 13.9981 24.2109 14.1548C24.0934 14.3114 23.9524 14.4328 23.7898 14.519C23.6273 14.6052 23.4471 14.6483 23.2513 14.6483C23.0555 14.6483 22.8772 14.6052 22.7147 14.519C22.5502 14.4328 22.4112 14.3114 22.2937 14.1548C22.1762 13.9981 22.0861 13.8081 22.0215 13.5868C21.9568 13.3656 21.9235 13.1188 21.9235 12.8466C21.9235 12.5744 21.9568 12.3276 22.0215 12.1063C22.0861 11.8851 22.1781 11.6951 22.2937 11.5365C22.4112 11.3778 22.5502 11.2564 22.7147 11.1703C22.8792 11.0841 23.0574 11.041 23.2513 11.041C23.4452 11.041 23.6273 11.0841 23.7898 11.1703C23.9524 11.2564 24.0914 11.3778 24.2109 11.5365C24.3284 11.6951 24.4204 11.8851 24.485 12.1063C24.5497 12.3276 24.583 12.5744 24.583 12.8466ZM23.7742 12.8466C23.7742 12.6958 23.7624 12.5587 23.737 12.4353C23.7115 12.312 23.6762 12.2043 23.6312 12.1142C23.5862 12.0241 23.5313 11.9536 23.4667 11.9046C23.4021 11.8557 23.3316 11.8302 23.2493 11.8302C23.1671 11.8302 23.1005 11.8557 23.0339 11.9046C22.9693 11.9536 22.9145 12.0241 22.8694 12.1142C22.8244 12.2043 22.7911 12.312 22.7656 12.4353C22.7402 12.5587 22.7284 12.6958 22.7284 12.8466C22.7284 12.9974 22.7402 13.1306 22.7656 13.2559C22.7911 13.3812 22.8263 13.4889 22.8694 13.5771C22.9145 13.6652 22.9693 13.7357 23.0339 13.7846C23.0985 13.8336 23.171 13.8591 23.2493 13.8591C23.3277 13.8591 23.4021 13.8336 23.4667 13.7846C23.5313 13.7357 23.5862 13.6652 23.6312 13.5771C23.6762 13.4889 23.7115 13.3812 23.737 13.2559C23.7624 13.1306 23.7742 12.9935 23.7742 12.8466Z" fill="black"/>
<path d="M15.3318 11.135H17.858L17.0786 12.0123C16.873 12.2454 16.7124 12.4412 16.5949 12.6038C16.4774 12.7643 16.3912 12.9014 16.3345 13.0131C16.2777 13.1247 16.2424 13.2148 16.2287 13.2853C16.215 13.3538 16.2072 13.4126 16.2072 13.4615C16.2072 13.5124 16.215 13.5633 16.2307 13.6103C16.2463 13.6593 16.2679 13.7004 16.2992 13.7396C16.3305 13.7768 16.3658 13.8081 16.4089 13.8297C16.452 13.8512 16.5029 13.863 16.5616 13.863C16.6732 13.863 16.7594 13.8238 16.8221 13.7455C16.8847 13.6671 16.9161 13.5692 16.9161 13.4517C16.9161 13.4184 16.9122 13.3695 16.9043 13.3068H17.7954C17.7954 13.5066 17.766 13.6867 17.7053 13.8493C17.6446 14.0118 17.5623 14.1528 17.4527 14.2703C17.345 14.3878 17.2157 14.4779 17.0669 14.5425C16.918 14.6052 16.7555 14.6385 16.5773 14.6385C16.3991 14.6385 16.2405 14.6091 16.0916 14.5484C15.9428 14.4877 15.8155 14.4035 15.7058 14.2958C15.5962 14.1881 15.512 14.0588 15.4512 13.908C15.3905 13.7592 15.3592 13.5966 15.3592 13.4223C15.3592 13.2343 15.3964 13.062 15.4689 12.9034C15.5413 12.7448 15.6588 12.5822 15.8214 12.4177L16.3423 11.889H15.3259V11.137L15.3318 11.135Z" fill="black"/>
<path d="M217.784 13.2167C217.763 13.2128 217.743 13.2128 217.727 13.2128H217.688C217.586 13.2128 217.502 13.2461 217.438 13.3127C217.373 13.3793 217.342 13.4654 217.342 13.5712C217.342 13.6769 217.371 13.7572 217.432 13.8199C217.492 13.8826 217.569 13.9158 217.663 13.9158C217.763 13.9158 217.843 13.8806 217.904 13.8081C217.964 13.7357 217.996 13.6417 217.996 13.5281H218.75C218.73 13.7063 218.689 13.8649 218.626 14.004C218.564 14.143 218.483 14.2586 218.387 14.3545C218.291 14.4505 218.176 14.5229 218.047 14.5719C217.917 14.6208 217.773 14.6463 217.614 14.6463C217.455 14.6463 217.318 14.6228 217.191 14.5758C217.066 14.5288 216.956 14.4622 216.866 14.3761C216.776 14.2899 216.707 14.1861 216.658 14.0647C216.609 13.9433 216.586 13.8062 216.586 13.6554C216.586 13.4928 216.615 13.3597 216.672 13.2559C216.729 13.1521 216.811 13.062 216.915 12.9856C216.754 12.9308 216.629 12.8348 216.539 12.6938C216.449 12.5528 216.404 12.3805 216.404 12.1749C216.404 12.0065 216.435 11.8518 216.496 11.7127C216.556 11.5737 216.643 11.4542 216.752 11.3543C216.862 11.2545 216.993 11.1781 217.144 11.1233C217.295 11.0684 217.461 11.041 217.641 11.041C217.882 11.041 218.102 11.0919 218.295 11.1957C218.489 11.2995 218.646 11.4621 218.761 11.6853C218.814 11.7852 218.85 11.8851 218.867 11.9849C218.885 12.0848 218.895 12.1847 218.895 12.2885H218.088C218.082 12.1279 218.039 12.0065 217.959 11.9242C217.878 11.842 217.771 11.8008 217.633 11.8008C217.489 11.8008 217.383 11.842 217.316 11.9281C217.25 12.0123 217.216 12.1161 217.216 12.2395C217.216 12.3864 217.257 12.5 217.338 12.5744C217.418 12.6488 217.514 12.688 217.626 12.688C217.653 12.688 217.68 12.686 217.704 12.6801C217.729 12.6762 217.757 12.6703 217.788 12.6645V13.2206L217.784 13.2167Z" fill="black"/>
<path d="M216.022 12.8466C216.022 13.1188 215.988 13.3656 215.924 13.5868C215.859 13.8081 215.767 13.9981 215.65 14.1548C215.532 14.3114 215.391 14.4328 215.229 14.519C215.066 14.6052 214.886 14.6483 214.69 14.6483C214.494 14.6483 214.316 14.6052 214.154 14.519C213.989 14.4328 213.85 14.3114 213.732 14.1548C213.615 13.9981 213.525 13.8081 213.46 13.5868C213.396 13.3656 213.362 13.1188 213.362 12.8466C213.362 12.5744 213.396 12.3276 213.46 12.1063C213.525 11.8851 213.617 11.6951 213.732 11.5365C213.85 11.3778 213.989 11.2564 214.154 11.1703C214.318 11.0841 214.496 11.041 214.69 11.041C214.884 11.041 215.066 11.0841 215.229 11.1703C215.391 11.2564 215.53 11.3778 215.65 11.5365C215.767 11.6951 215.859 11.8851 215.924 12.1063C215.988 12.3276 216.022 12.5744 216.022 12.8466ZM215.215 12.8466C215.215 12.6958 215.203 12.5587 215.178 12.4353C215.152 12.312 215.117 12.2043 215.072 12.1142C215.027 12.0241 214.972 11.9536 214.907 11.9046C214.843 11.8557 214.772 11.8302 214.69 11.8302C214.608 11.8302 214.541 11.8557 214.475 11.9046C214.41 11.9536 214.355 12.0241 214.31 12.1142C214.265 12.2043 214.232 12.312 214.206 12.4353C214.181 12.5587 214.169 12.6958 214.169 12.8466C214.169 12.9974 214.181 13.1306 214.206 13.2559C214.232 13.3812 214.267 13.4889 214.31 13.5771C214.355 13.6652 214.41 13.7357 214.475 13.7846C214.539 13.8336 214.612 13.8591 214.69 13.8591C214.768 13.8591 214.843 13.8336 214.907 13.7846C214.972 13.7357 215.027 13.6652 215.072 13.5771C215.117 13.4889 215.152 13.3812 215.178 13.2559C215.203 13.1306 215.215 12.9935 215.215 12.8466Z" fill="black"/>
<path d="M11.6717 194.286V194.664H10.9921V194.286H10.291V193.528H10.9921V192.013H11.562L13.7024 193.211V194.286H11.6697H11.6717ZM11.6717 193.528H13.0151L11.6717 192.808V193.528Z" fill="black"/>
<path d="M12.5627 201.234C12.8134 201.046 12.9387 200.811 12.9387 200.535C12.9387 200.414 12.9152 200.3 12.8662 200.197C12.8173 200.093 12.7527 200.003 12.6704 199.928C12.5882 199.854 12.4883 199.795 12.3747 199.752C12.2592 199.709 12.1358 199.687 12.0046 199.687C11.8734 199.687 11.7441 199.709 11.6286 199.752C11.513 199.795 11.4151 199.854 11.3289 199.93C11.2447 200.007 11.1782 200.097 11.1292 200.198C11.0802 200.3 11.0567 200.412 11.0567 200.531C11.0567 200.792 11.1782 201.027 11.419 201.234H10.3694L10.338 201.15C10.2891 201.025 10.2538 200.909 10.2323 200.8C10.2088 200.692 10.199 200.584 10.199 200.479C10.199 200.261 10.244 200.054 10.3322 199.856C10.4203 199.658 10.5456 199.482 10.7082 199.331C10.8687 199.18 11.0607 199.059 11.2819 198.967C11.5032 198.875 11.7461 198.83 12.0085 198.83C12.2709 198.83 12.5118 198.875 12.7311 198.965C12.9504 199.055 13.1384 199.176 13.2971 199.327C13.4557 199.478 13.5791 199.654 13.6692 199.854C13.7573 200.054 13.8023 200.263 13.8023 200.482C13.8023 200.608 13.7886 200.729 13.7592 200.851C13.7299 200.972 13.6868 201.097 13.6261 201.232H12.5666L12.5627 201.234Z" fill="black"/>
<path d="M12.9524 206.925V205.613H13.7044V208.191L10.293 206.393V205.494L12.9544 206.925H12.9524Z" fill="black"/>
<path d="M12.0026 212.054C12.2748 212.054 12.5216 212.087 12.7429 212.152C12.9642 212.217 13.1541 212.309 13.3108 212.426C13.4675 212.544 13.5889 212.685 13.675 212.847C13.7612 213.01 13.8043 213.19 13.8043 213.386C13.8043 213.582 13.7612 213.76 13.675 213.922C13.5889 214.087 13.4675 214.226 13.3108 214.344C13.1541 214.461 12.9642 214.551 12.7429 214.616C12.5216 214.68 12.2748 214.714 12.0026 214.714C11.7304 214.714 11.4837 214.68 11.2624 214.616C11.0411 214.551 10.8511 214.459 10.6925 214.344C10.5339 214.228 10.4125 214.087 10.3263 213.922C10.2401 213.758 10.197 213.58 10.197 213.386C10.197 213.192 10.2401 213.01 10.3263 212.847C10.4125 212.685 10.5339 212.546 10.6925 212.426C10.8511 212.307 11.0411 212.217 11.2624 212.152C11.4837 212.087 11.7304 212.054 12.0026 212.054ZM12.0026 212.863C11.8518 212.863 11.7147 212.875 11.5914 212.9C11.468 212.926 11.3603 212.961 11.2702 213.006C11.1801 213.051 11.1096 213.106 11.0607 213.17C11.0117 213.235 10.9862 213.306 10.9862 213.388C10.9862 213.47 11.0117 213.537 11.0607 213.601C11.1096 213.666 11.1801 213.721 11.2702 213.766C11.3603 213.811 11.468 213.844 11.5914 213.87C11.7147 213.895 11.8518 213.907 12.0026 213.907C12.1534 213.907 12.2866 213.895 12.4119 213.87C12.5372 213.844 12.645 213.811 12.7331 213.766C12.8212 213.721 12.8917 213.666 12.9407 213.601C12.9896 213.537 13.0151 213.464 13.0151 213.388C13.0151 213.311 12.9896 213.235 12.9407 213.17C12.8917 213.106 12.8212 213.051 12.7331 213.006C12.645 212.961 12.5372 212.926 12.4119 212.9C12.2866 212.875 12.1495 212.863 12.0026 212.863Z" fill="black"/>
<path d="M10.291 221.306V218.777L11.1684 219.557C11.4014 219.762 11.5972 219.923 11.7598 220.04C11.9204 220.156 12.0574 220.244 12.1691 220.301C12.2807 220.358 12.3708 220.393 12.4413 220.407C12.5118 220.42 12.5686 220.428 12.6175 220.428C12.6684 220.428 12.7194 220.42 12.7664 220.405C12.8153 220.389 12.8564 220.368 12.8956 220.336C12.9328 220.305 12.9642 220.27 12.9857 220.227C13.0072 220.183 13.019 220.133 13.019 220.074C13.019 219.962 12.9798 219.876 12.9015 219.813C12.8232 219.751 12.7252 219.719 12.6077 219.719C12.5744 219.719 12.5255 219.723 12.4628 219.731V218.84C12.6626 218.84 12.8427 218.869 13.0053 218.93C13.1678 218.991 13.3088 219.073 13.4263 219.183C13.5438 219.29 13.6339 219.42 13.6985 219.568C13.7612 219.717 13.7945 219.88 13.7945 220.058C13.7945 220.236 13.7651 220.395 13.7044 220.544C13.6437 220.693 13.5595 220.82 13.4518 220.93C13.3441 221.039 13.2148 221.123 13.064 221.184C12.9152 221.245 12.7527 221.276 12.5784 221.276C12.3904 221.276 12.218 221.239 12.0594 221.167C11.9008 221.092 11.7382 220.977 11.5737 220.814L11.045 220.293V221.309H10.293L10.291 221.306Z" fill="black"/>
<path d="M12.3727 18.8548C12.3688 18.8763 12.3688 18.8959 12.3688 18.9116V18.9507C12.3688 19.0526 12.4021 19.1368 12.4687 19.2014C12.5353 19.266 12.6215 19.2973 12.7272 19.2973C12.833 19.2973 12.9132 19.268 12.9759 19.2073C13.0386 19.1466 13.0719 19.0702 13.0719 18.9762C13.0719 18.8763 13.0366 18.796 12.9642 18.7353C12.8917 18.6746 12.7977 18.6433 12.6841 18.6433V17.8893C12.8623 17.9089 13.021 17.95 13.16 18.0127C13.299 18.0753 13.4146 18.1556 13.5105 18.2516C13.6065 18.3476 13.679 18.4631 13.7279 18.5923C13.7769 18.7216 13.8023 18.8665 13.8023 19.0251C13.8023 19.1838 13.7788 19.3208 13.7318 19.4481C13.6848 19.5735 13.6182 19.6831 13.5321 19.7732C13.4459 19.8633 13.3421 19.9318 13.2207 19.9808C13.0993 20.0298 12.9622 20.0533 12.8114 20.0533C12.6489 20.0533 12.5157 20.0239 12.4119 19.9671C12.3081 19.9103 12.218 19.8281 12.1417 19.7243C12.0868 19.8848 11.9909 20.0102 11.8499 20.1003C11.7089 20.1903 11.5365 20.2354 11.3309 20.2354C11.1625 20.2354 11.0078 20.2041 10.8687 20.1433C10.7297 20.0826 10.6102 19.9965 10.5104 19.8868C10.4105 19.7771 10.3341 19.6459 10.2793 19.4951C10.2245 19.3443 10.197 19.1779 10.197 18.9977C10.197 18.7568 10.248 18.5375 10.3517 18.3436C10.4555 18.1498 10.6181 17.9931 10.8413 17.8776C10.9412 17.8247 11.0411 17.7894 11.141 17.7718C11.2408 17.7542 11.3407 17.7444 11.4445 17.7444V18.5512C11.2839 18.5571 11.1625 18.6002 11.0802 18.6805C10.998 18.7608 10.9569 18.8685 10.9569 19.0056C10.9569 19.1505 10.998 19.2562 11.0842 19.3228C11.1684 19.3894 11.2722 19.4227 11.3955 19.4227C11.5424 19.4227 11.656 19.3816 11.7304 19.3013C11.8048 19.221 11.844 19.125 11.844 19.0134C11.844 18.986 11.842 18.9586 11.8362 18.9351C11.8322 18.9096 11.8264 18.8822 11.8205 18.8508H12.3767L12.3727 18.8548Z" fill="black"/>
<path d="M12.0026 20.6152C12.2748 20.6152 12.5216 20.6485 12.7429 20.7132C12.9642 20.7778 13.1541 20.8698 13.3108 20.9873C13.4675 21.1048 13.5889 21.2458 13.675 21.4084C13.7612 21.5709 13.8043 21.7511 13.8043 21.9469C13.8043 22.1427 13.7612 22.3209 13.675 22.4835C13.5889 22.648 13.4675 22.787 13.3108 22.9045C13.1541 23.022 12.9642 23.1121 12.7429 23.1767C12.5216 23.2414 12.2748 23.2747 12.0026 23.2747C11.7304 23.2747 11.4837 23.2414 11.2624 23.1767C11.0411 23.1121 10.8511 23.0201 10.6925 22.9045C10.5339 22.787 10.4125 22.648 10.3263 22.4835C10.2401 22.319 10.197 22.1408 10.197 21.9469C10.197 21.753 10.2401 21.5709 10.3263 21.4084C10.4125 21.2458 10.5339 21.1068 10.6925 20.9873C10.8511 20.8698 11.0411 20.7778 11.2624 20.7132C11.4837 20.6485 11.7304 20.6152 12.0026 20.6152ZM12.0026 21.4221C11.8518 21.4221 11.7147 21.4338 11.5914 21.4593C11.468 21.4847 11.3603 21.52 11.2702 21.565C11.1801 21.6101 11.1096 21.6649 11.0607 21.7295C11.0117 21.7942 10.9862 21.8647 10.9862 21.9469C10.9862 22.0292 11.0117 22.0957 11.0607 22.1623C11.1096 22.2269 11.1801 22.2818 11.2702 22.3268C11.3603 22.3719 11.468 22.4052 11.5914 22.4306C11.7147 22.4561 11.8518 22.4678 12.0026 22.4678C12.1534 22.4678 12.2866 22.4561 12.4119 22.4306C12.5372 22.4052 12.645 22.3699 12.7331 22.3268C12.8212 22.2818 12.8917 22.2269 12.9407 22.1623C12.9896 22.0977 13.0151 22.0252 13.0151 21.9469C13.0151 21.8686 12.9896 21.7942 12.9407 21.7295C12.8917 21.6649 12.8212 21.6101 12.7331 21.565C12.645 21.52 12.5372 21.4847 12.4119 21.4593C12.2866 21.4338 12.1495 21.4221 12.0026 21.4221Z" fill="black"/>
<path d="M103.893 195.297V208.04H101.083V195.299L99.5656 195.297V208.04V209.557V209.559L101.083 209.563V209.557H103.893V209.561H105.411V209.557V208.04V195.297H103.893Z" fill="black"/>
<path d="M139.118 195.299H133.296V196.817H135.448V209.74L136.966 209.742V196.817H139.118V195.299Z" fill="black"/>
<path d="M97.057 200.908H93.3635V195.297H91.8458L87.4944 195.299V196.817V208.042V209.559V209.565H89.0121V209.559H97.055V202.427V200.909L97.057 200.908ZM89.0141 196.817H91.8478V200.908H89.0141V196.817ZM95.5412 208.04H89.0141V202.423H95.5412V208.04Z" fill="black"/>
<path d="M112.224 195.301V204.538L109.436 195.303L107.92 195.297V195.299V209.563L109.436 209.565V200.322L112.224 209.565H113.742V195.301H112.224Z" fill="black"/>
<path d="M122.404 196.292L117.766 195.303H116.249V209.563H117.766L122.404 208.874V196.294V196.292ZM117.768 196.746L120.888 197.402V207.675L117.768 208.147V196.748V196.746Z" fill="black"/>
<path d="M130.742 195.299H124.912V209.559H126.43V202.423H129.272V209.565H130.789V195.299H130.744H130.742ZM126.43 200.907V196.817H129.272V200.907H126.43Z" fill="black"/>
<path d="M147.457 195.301H141.627V209.561H143.144V202.425H145.986V209.567H147.504V195.301H147.459H147.457ZM143.144 200.909V196.818H145.986V200.909H143.144Z" fill="black"/>
</g>
<defs>
<clipPath id="clip0_1071_4607">
<rect width="235" height="235" rx="117.5" fill="white"/>
</clipPath>
</defs>
</svg>
