<?xml version="1.0" encoding="UTF-8"?>
<svg id="Logo_full_Abundata_transparent_Blanc" xmlns="http://www.w3.org/2000/svg" xmlns:xlink="http://www.w3.org/1999/xlink" viewBox="0 0 4072.84 1200">
  <defs>
    <style>
      .cls-1 {
        fill: #fff;
      }

      .cls-2 {
        fill: url(#Dégradé_sans_nom_46);
      }

      .cls-3 {
        fill: url(#Dégradé_sans_nom_46-8);
      }

      .cls-4 {
        fill: url(#Dégradé_sans_nom_46-4);
      }

      .cls-5 {
        fill: url(#Dégradé_sans_nom_46-5);
      }

      .cls-6 {
        fill: url(#Dégradé_sans_nom_46-6);
      }

      .cls-7 {
        fill: url(#Dégradé_sans_nom_46-7);
      }

      .cls-8 {
        fill: url(#Dégradé_sans_nom_46-3);
      }

      .cls-9 {
        fill: url(#Dégradé_sans_nom_46-2);
      }
    </style>
    <linearGradient id="Dégradé_sans_nom_46" data-name="Dégradé sans nom 46" x1="1592.12" y1="866.43" x2="1592.12" y2="287.93" gradientUnits="userSpaceOnUse">
      <stop offset="0" stop-color="#fffce9" stop-opacity="0"/>
      <stop offset=".06" stop-color="#fffce9" stop-opacity=".02"/>
      <stop offset=".13" stop-color="#fffcea" stop-opacity=".08"/>
      <stop offset=".2" stop-color="#fffcec" stop-opacity=".17"/>
      <stop offset=".28" stop-color="#fffcef" stop-opacity=".3"/>
      <stop offset=".37" stop-color="#fffdf3" stop-opacity=".47"/>
      <stop offset=".45" stop-color="#fffef7" stop-opacity=".68"/>
      <stop offset=".54" stop-color="#fffefd" stop-opacity=".92"/>
      <stop offset=".56" stop-color="#fff"/>
    </linearGradient>
    <linearGradient id="Dégradé_sans_nom_46-2" data-name="Dégradé sans nom 46" x1="2980.33" y1="866.43" x2="2980.33" y2="287.93" xlink:href="#Dégradé_sans_nom_46"/>
    <linearGradient id="Dégradé_sans_nom_46-3" data-name="Dégradé sans nom 46" x1="750.74" y1="866.43" x2="750.74" y2="287.93" xlink:href="#Dégradé_sans_nom_46"/>
    <linearGradient id="Dégradé_sans_nom_46-4" data-name="Dégradé sans nom 46" x1="1171.74" y1="866.43" x2="1171.74" y2="287.93" xlink:href="#Dégradé_sans_nom_46"/>
    <linearGradient id="Dégradé_sans_nom_46-5" data-name="Dégradé sans nom 46" x1="1935.56" y1="866.43" x2="1935.56" y2="287.93" xlink:href="#Dégradé_sans_nom_46"/>
    <linearGradient id="Dégradé_sans_nom_46-6" data-name="Dégradé sans nom 46" x1="2285.38" y1="866.43" x2="2285.38" y2="287.93" xlink:href="#Dégradé_sans_nom_46"/>
    <linearGradient id="Dégradé_sans_nom_46-7" data-name="Dégradé sans nom 46" x1="2636.26" y1="866.43" x2="2636.26" y2="287.93" xlink:href="#Dégradé_sans_nom_46"/>
    <linearGradient id="Dégradé_sans_nom_46-8" data-name="Dégradé sans nom 46" x1="3324.4" y1="866.43" x2="3324.4" y2="287.93" xlink:href="#Dégradé_sans_nom_46"/>
  </defs>
  <g>
    <g>
      <path class="cls-1" d="M1850.49,885.66v7.87c-3.53-3.21-7.19-4.82-10.97-4.82-4.16,0-7.67,1.63-10.52,4.88-2.87,3.23-4.3,7.19-4.3,11.86s1.43,8.52,4.3,11.69c2.87,3.18,6.39,4.76,10.55,4.76,2.15,0,3.98-.38,5.48-1.14.84-.38,1.71-.89,2.61-1.54.9-.65,1.85-1.43,2.85-2.34v8.01c-3.5,2.15-7.17,3.22-11.02,3.22-5.79,0-10.73-2.2-14.83-6.59-4.08-4.43-6.11-9.77-6.11-16.03,0-5.61,1.71-10.61,5.12-15,4.2-5.38,9.63-8.07,16.29-8.07,3.64,0,7.15,1.07,10.55,3.22Z"/>
      <path class="cls-1" d="M1907.76,905.03c0-7.02,1.5-12.62,4.51-16.8,2.69-3.78,5.96-5.68,9.79-5.68s7.09,1.89,9.79,5.68c3.01,4.18,4.51,9.88,4.51,17.08s-1.5,12.87-4.51,17.06c-2.69,3.78-5.95,5.68-9.76,5.68s-7.08-1.89-9.81-5.68c-3.01-4.18-4.51-9.96-4.51-17.34ZM1913.77,905.05c0,4.89.78,8.95,2.34,12.18,1.56,3.18,3.54,4.76,5.96,4.76s4.38-1.59,5.96-4.76c1.57-3.16,2.36-7.14,2.36-11.95s-.79-8.8-2.36-11.98c-1.57-3.16-3.56-4.73-5.96-4.73s-4.36,1.58-5.93,4.73c-1.57,3.14-2.36,7.05-2.36,11.75Z"/>
      <path class="cls-1" d="M1995.63,927.33v-47.03l29.55,33.6v-30.6h6.11v46.72l-29.55-33.51v30.83h-6.11Z"/>
      <path class="cls-1" d="M2116.53,889.51h-12.49l-1.99,7.3c.3-.04.58-.07.85-.09.27-.02.52-.03.75-.03,3.94,0,7.16,1.44,9.68,4.33,2.54,2.87,3.8,6.55,3.8,11.04s-1.43,8.46-4.3,11.47c-2.87,3-6.48,4.51-10.84,4.51-5.37,0-9.6-2.74-12.7-8.21l4.62-4.25c1.28,2.36,2.56,4.02,3.86,4.99,1.29.95,2.88,1.43,4.75,1.43,2.45,0,4.5-.93,6.17-2.79,1.66-1.92,2.49-4.25,2.49-6.99s-.82-5.11-2.47-6.9c-1.64-1.84-3.7-2.77-6.17-2.77-2.75,0-5.12,1.3-7.11,3.91h-2.02l6.38-23.16h16.74v6.22Z"/>
      <path class="cls-1" d="M2184.53,883.29v26.52c0,3.78.57,6.55,1.71,8.3,1.7,2.53,4.08,3.79,7.16,3.79s5.49-1.26,7.19-3.79c1.14-1.69,1.71-4.46,1.71-8.3v-26.52h6.11v28.35c0,4.64-1.33,8.46-3.99,11.47-2.99,3.35-6.66,5.02-11.02,5.02s-8.02-1.67-10.99-5.02c-2.66-3-3.99-6.83-3.99-11.47v-28.35h6.11Z"/>
      <path class="cls-1" d="M2268.83,927.33l8.53-47.35,13.91,34.23,14.41-34.23,7.66,47.35h-6.27l-3.91-26.58-11.99,28.61-11.65-28.64-4.36,26.61h-6.32Z"/>
      <path class="cls-1" d="M2372.62,927.33l8.53-47.35,13.91,34.23,14.41-34.23,7.66,47.35h-6.27l-3.91-26.58-11.99,28.61-11.65-28.64-4.36,26.61h-6.32Z"/>
      <path class="cls-1" d="M2499.48,915.04h4.3v6.05h-4.3v6.25h-6.11v-6.25h-19.89l26-41.07v35.02ZM2493.36,915.04v-14.75l-9.34,14.75h9.34Z"/>
      <path class="cls-1" d="M2581.05,889.51h-19.99v-6.22h30.2l-25.56,45.55-4.85-3.34,20.2-35.99Z"/>
      <path class="cls-1" d="M2645.85,905.03c0-7.02,1.5-12.62,4.51-16.8,2.69-3.78,5.96-5.68,9.79-5.68s7.09,1.89,9.79,5.68c3.01,4.18,4.51,9.88,4.51,17.08s-1.5,12.87-4.51,17.06c-2.69,3.78-5.95,5.68-9.76,5.68s-7.08-1.89-9.81-5.68c-3.01-4.18-4.51-9.96-4.51-17.34ZM2651.86,905.05c0,4.89.78,8.95,2.34,12.18,1.56,3.18,3.54,4.76,5.96,4.76s4.38-1.59,5.96-4.76c1.57-3.16,2.36-7.14,2.36-11.95s-.79-8.8-2.36-11.98c-1.57-3.16-3.56-4.73-5.96-4.73s-4.36,1.58-5.93,4.73c-1.57,3.14-2.36,7.05-2.36,11.75Z"/>
      <path class="cls-1" d="M2742.32,921.08h15.09v6.25h-27.21l14.06-18.51c1.38-1.84,2.54-3.44,3.48-4.79.94-1.35,1.65-2.48,2.14-3.39,1-1.79,1.5-3.39,1.5-4.82,0-2.05-.67-3.77-1.99-5.16-1.33-1.39-2.97-2.08-4.93-2.08-4.09,0-6.44,2.63-7.03,7.9h-6.09c.98-9.28,5.29-13.92,12.94-13.92,3.69,0,6.79,1.27,9.29,3.82,2.52,2.55,3.78,5.7,3.78,9.47,0,2.4-.59,4.74-1.76,7.04-.59,1.2-1.47,2.62-2.61,4.26-1.15,1.64-2.59,3.59-4.34,5.83l-6.3,8.1Z"/>
    </g>
    <g>
      <path class="cls-1" d="M987.02,928.84l-4.49-3.62,9.68-14.35c-.52.08-.97.13-1.34.17-.37.04-.67.06-.89.06-3.27,0-6.11-1.36-8.5-4.08-2.38-2.7-3.57-5.95-3.57-9.75,0-4.05,1.32-7.51,3.96-10.38,2.66-2.89,5.84-4.34,9.55-4.34s6.9,1.43,9.63,4.28c2.73,2.83,4.09,6.18,4.09,10.04,0,3.42-1.33,7.12-3.99,11.09l-14.14,20.88ZM983.87,896.78c0,2.38.74,4.37,2.23,5.99,1.5,1.64,3.31,2.45,5.43,2.45s3.92-.81,5.41-2.42c1.5-1.64,2.26-3.6,2.26-5.9s-.75-4.27-2.26-5.9c-1.49-1.62-3.3-2.42-5.43-2.42s-3.89.81-5.38,2.42c-1.5,1.64-2.26,3.57-2.26,5.79Z"/>
      <path class="cls-1" d="M1070.87,889.51h-7.01l3.36-6.22h9.76v44.04h-6.11v-37.82Z"/>
      <path class="cls-1" d="M1140.65,905.03c0-7.02,1.5-12.62,4.51-16.8,2.69-3.78,5.96-5.68,9.79-5.68s7.09,1.89,9.79,5.68c3.01,4.18,4.51,9.88,4.51,17.08s-1.5,12.87-4.51,17.06c-2.69,3.78-5.95,5.68-9.76,5.68s-7.08-1.89-9.81-5.68c-3.01-4.18-4.51-9.96-4.51-17.34ZM1146.66,905.05c0,4.89.78,8.95,2.34,12.18,1.56,3.18,3.54,4.76,5.96,4.76s4.38-1.59,5.96-4.76c1.57-3.16,2.36-7.14,2.36-11.95s-.79-8.8-2.36-11.98c-1.57-3.16-3.56-4.73-5.96-4.73s-4.36,1.58-5.93,4.73c-1.57,3.14-2.36,7.05-2.36,11.75Z"/>
      <path class="cls-1" d="M1237.13,921.08h15.09v6.25h-27.21l14.06-18.51c1.38-1.84,2.54-3.44,3.48-4.79.94-1.35,1.65-2.48,2.14-3.39,1-1.79,1.5-3.39,1.5-4.82,0-2.05-.67-3.77-1.99-5.16-1.33-1.39-2.97-2.08-4.93-2.08-4.09,0-6.44,2.63-7.03,7.9h-6.09c.98-9.28,5.29-13.92,12.94-13.92,3.69,0,6.79,1.27,9.29,3.82,2.52,2.55,3.78,5.7,3.78,9.47,0,2.4-.59,4.74-1.76,7.04-.6,1.2-1.47,2.62-2.61,4.26-1.15,1.64-2.59,3.59-4.34,5.83l-6.3,8.1Z"/>
      <path class="cls-1" d="M1319.01,889.51h-7.01l3.36-6.22h9.76v44.04h-6.11v-37.82Z"/>
      <path class="cls-1" d="M1388.8,905.03c0-7.02,1.5-12.62,4.51-16.8,2.69-3.78,5.96-5.68,9.79-5.68s7.09,1.89,9.79,5.68c3.01,4.18,4.51,9.88,4.51,17.08s-1.5,12.87-4.51,17.06c-2.69,3.78-5.95,5.68-9.76,5.68s-7.08-1.89-9.81-5.68c-3.01-4.18-4.51-9.96-4.51-17.34ZM1394.8,905.05c0,4.89.78,8.95,2.34,12.18,1.56,3.18,3.54,4.76,5.96,4.76s4.38-1.59,5.96-4.76c1.57-3.16,2.36-7.14,2.36-11.95s-.79-8.8-2.36-11.98c-1.57-3.16-3.56-4.73-5.96-4.73s-4.36,1.58-5.93,4.73c-1.57,3.14-2.36,7.05-2.36,11.75Z"/>
      <path class="cls-1" d="M1500.07,889.51h-12.49l-1.99,7.3c.3-.04.58-.07.85-.09.27-.02.52-.03.75-.03,3.94,0,7.16,1.44,9.68,4.33,2.54,2.87,3.8,6.55,3.8,11.04s-1.43,8.46-4.3,11.47c-2.87,3-6.48,4.51-10.84,4.51-5.37,0-9.6-2.74-12.7-8.21l4.62-4.25c1.28,2.36,2.56,4.02,3.86,4.99,1.29.95,2.88,1.43,4.75,1.43,2.45,0,4.5-.93,6.17-2.79,1.66-1.92,2.49-4.25,2.49-6.99s-.82-5.11-2.47-6.9c-1.64-1.84-3.7-2.77-6.17-2.77-2.75,0-5.12,1.3-7.11,3.91h-2.02l6.38-23.16h16.74v6.22Z"/>
      <path class="cls-1" d="M1568.07,883.29v26.52c0,3.78.57,6.55,1.71,8.3,1.7,2.53,4.08,3.79,7.16,3.79s5.49-1.26,7.19-3.79c1.14-1.69,1.71-4.46,1.71-8.3v-26.52h6.11v28.35c0,4.64-1.33,8.46-3.99,11.47-2.99,3.35-6.67,5.02-11.02,5.02s-8.02-1.67-10.99-5.02c-2.66-3-3.99-6.83-3.99-11.47v-28.35h6.11Z"/>
      <path class="cls-1" d="M1677.19,889.51h-12.49l-1.99,7.3c.3-.04.58-.07.85-.09.27-.02.52-.03.75-.03,3.94,0,7.16,1.44,9.68,4.33,2.54,2.87,3.8,6.55,3.8,11.04s-1.43,8.46-4.3,11.47c-2.87,3-6.48,4.51-10.84,4.51-5.37,0-9.6-2.74-12.7-8.21l4.62-4.25c1.28,2.36,2.56,4.02,3.86,4.99,1.29.95,2.88,1.43,4.75,1.43,2.45,0,4.5-.93,6.17-2.79,1.66-1.92,2.49-4.25,2.49-6.99s-.82-5.11-2.47-6.9c-1.64-1.84-3.7-2.77-6.17-2.77-2.75,0-5.12,1.3-7.11,3.91h-2.02l6.38-23.16h16.74v6.22Z"/>
    </g>
    <g>
      <path class="cls-1" d="M2983.47,915.04h4.3v6.05h-4.3v6.25h-6.11v-6.25h-19.89l26-41.07v35.02ZM2977.36,915.04v-14.75l-9.34,14.75h9.34Z"/>
      <path class="cls-1" d="M3103.17,885.66v7.87c-3.53-3.21-7.19-4.82-10.97-4.82-4.16,0-7.67,1.63-10.52,4.88-2.87,3.23-4.3,7.19-4.3,11.86s1.43,8.52,4.3,11.69c2.87,3.18,6.38,4.76,10.55,4.76,2.15,0,3.98-.38,5.48-1.14.84-.38,1.71-.89,2.61-1.54.9-.65,1.85-1.43,2.85-2.34v8.01c-3.5,2.15-7.17,3.22-11.02,3.22-5.79,0-10.73-2.2-14.83-6.59-4.08-4.43-6.11-9.77-6.11-16.03,0-5.61,1.71-10.61,5.12-15,4.2-5.38,9.63-8.07,16.29-8.07,3.64,0,7.15,1.07,10.55,3.22Z"/>
      <path class="cls-1" d="M3207.05,889.51h-19.99v-6.22h30.2l-25.56,45.55-4.85-3.34,20.2-35.99Z"/>
      <path class="cls-1" d="M3297.97,905.03c0-7.02,1.5-12.62,4.51-16.8,2.69-3.78,5.96-5.68,9.79-5.68s7.09,1.89,9.79,5.68c3.01,4.18,4.51,9.88,4.51,17.08s-1.5,12.87-4.51,17.06c-2.69,3.78-5.95,5.68-9.76,5.68s-7.08-1.89-9.81-5.68c-3.01-4.18-4.51-9.96-4.51-17.34ZM3303.98,905.05c0,4.89.78,8.95,2.33,12.18,1.56,3.18,3.54,4.76,5.96,4.76s4.38-1.59,5.96-4.76c1.57-3.16,2.36-7.14,2.36-11.95s-.79-8.8-2.36-11.98c-1.57-3.16-3.56-4.73-5.96-4.73s-4.36,1.58-5.93,4.73c-1.57,3.14-2.36,7.05-2.36,11.75Z"/>
      <path class="cls-1" d="M3420.56,921.08h15.09v6.25h-27.21l14.06-18.51c1.38-1.84,2.54-3.44,3.48-4.79.94-1.35,1.65-2.48,2.14-3.39,1-1.79,1.5-3.39,1.5-4.82,0-2.05-.67-3.77-1.99-5.16-1.33-1.39-2.97-2.08-4.93-2.08-4.09,0-6.44,2.63-7.03,7.9h-6.09c.98-9.28,5.29-13.92,12.94-13.92,3.69,0,6.79,1.27,9.29,3.82,2.52,2.55,3.78,5.7,3.78,9.47,0,2.4-.59,4.74-1.76,7.04-.59,1.2-1.47,2.62-2.61,4.26-1.15,1.64-2.59,3.59-4.34,5.83l-6.3,8.1Z"/>
    </g>
    <g>
      <path class="cls-1" d="M643.72,906.88v-5.68c2.59,0,4.33-.31,5.22-.94,1.59-1.1,2.39-2.87,2.39-5.31,0-1.88-.58-3.41-1.73-4.59-1.14-1.2-2.62-1.8-4.43-1.8-1.7,0-3.01.45-3.94,1.34-.89.91-1.56,2.45-1.99,4.62h-6.09c.63-4.15,1.92-7.18,3.88-9.11,1.96-1.93,4.7-2.9,8.21-2.9s6.45,1.14,8.69,3.42c2.24,2.26,3.36,5.18,3.36,8.76,0,4.03-1.47,7.17-4.41,9.41,3.36,2.15,5.04,5.64,5.04,10.47,0,3.96-1.22,7.19-3.67,9.7-2.45,2.51-5.59,3.76-9.42,3.76-4.88,0-8.5-1.95-10.86-5.85-.98-1.64-1.6-3.9-1.86-6.79h5.9c.31,2.13,1.08,3.76,2.3,4.89,1.22,1.13,2.8,1.7,4.76,1.7s3.61-.71,4.91-2.14c1.29-1.46,1.94-3.32,1.94-5.56,0-2.97-.97-5.08-2.91-6.33-1.14-.72-2.9-1.08-5.27-1.08Z"/>
      <path class="cls-1" d="M666.44,905.03c0-7.02,1.5-12.62,4.51-16.8,2.69-3.78,5.96-5.68,9.79-5.68s7.09,1.89,9.79,5.68c3.01,4.18,4.51,9.88,4.51,17.08s-1.5,12.87-4.51,17.06c-2.69,3.78-5.95,5.68-9.76,5.68s-7.08-1.89-9.81-5.68c-3.01-4.18-4.51-9.96-4.51-17.34ZM672.45,905.05c0,4.89.78,8.95,2.34,12.18,1.56,3.18,3.54,4.76,5.96,4.76s4.38-1.59,5.96-4.76c1.57-3.16,2.36-7.14,2.36-11.95s-.79-8.8-2.36-11.98c-1.57-3.16-3.56-4.73-5.96-4.73s-4.36,1.58-5.93,4.73c-1.57,3.14-2.36,7.05-2.36,11.75Z"/>
    </g>
  </g>
  <g>
    <g>
      <path class="cls-1" d="M809.22,265.68h-118.15l-61.26-.11v587.26h.7s0-347.4,0-347.4h6.22v347.42h7.9s0-347.42,0-347.42h2.49v347.44l15.56.03v-347.46h12.43v347.49l11.26.02v-347.51h12.43v53.62h8.01v-53.62h2.49v53.62h5.83v-53.62h12.43v53.62h7.68v-53.62h6.22v53.62h9.36v-53.62h6.22v53.62h4.52v-53.62h6.22v53.62h7.21v-53.62h6.22v53.62h9.11v-53.62h12.43v53.62h6.5v294.01h62.45V265.68h-62.45ZM809.22,496.59h-116.96v-168.45h116.96v168.45ZM819.24,853h-2.49v-347.58h2.49v347.58ZM827.75,853h-2.49v-347.58h2.49v347.58ZM845.71,853h-12.43v-347.58h12.43v347.58ZM857.45,853h-6.22v-347.58h6.22v347.58Z"/>
      <g>
        <rect class="cls-1" x="1197.98" y="790.26" width="1.52" height="62.45"/>
        <rect class="cls-1" x="1134.97" y="790.26" width="9.14" height="62.45"/>
        <rect class="cls-1" x="1176.99" y="790.26" width="4.47" height="62.45"/>
        <rect class="cls-1" x="1293.84" y="790.26" width="4.52" height="62.45"/>
        <rect class="cls-1" x="1185.62" y="790.26" width="6.14" height="62.45"/>
        <rect class="cls-1" x="1264.37" y="790.26" width="7.68" height="62.45"/>
        <rect class="cls-1" x="1246.12" y="790.26" width="5.83" height="62.45"/>
        <rect class="cls-1" x="1211.94" y="790.26" width="11.26" height="62.45"/>
        <rect class="cls-1" x="1235.62" y="790.26" width="8.01" height="62.45"/>
        <rect class="cls-1" x="1150.33" y="790.26" width="14.23" height="62.45"/>
        <rect class="cls-1" x="1060.52" y="790.26" width="17.24" height="62.45"/>
        <rect class="cls-1" x="1278.27" y="790.26" width="9.36" height="62.45"/>
        <rect class="cls-1" x="1046.78" y="790.26" width="7.52" height="62.45"/>
        <path class="cls-1" d="M1216.52,265.57h-62.45v.11h-179.11v587.26h6.73s0-347.52,0-347.52h6.22v347.54h5.66s0-347.54,0-347.54h6.22v347.56l37.63.07v-.34h3.17v-62.45h-3.17v-231.22h3.17v-53.62h6.22v53.62h7.52v-53.62h6.22v53.62h17.24v-53.62h2.49v53.62h11.19v-53.62h2.49v53.62h6.49v-53.62h2.49v53.62h5.88v-53.62h6.22v53.62h17.49v-53.62h2.49v53.62h9.14v-53.62h6.22v53.62h14.23v-53.62h12.43v53.62h4.47v-53.62h4.16v53.62h6.14v-53.62h6.22v53.62h1.52v-53.62h12.43v53.62h11.26v-53.62h12.43v53.62h8.01v-53.62h2.49v53.62h5.83v-53.62h12.43v53.62h7.68v-53.62h6.22v53.62h9.36v-53.62h6.22v53.62h4.52v-53.62h6.22v53.62h1.5v231.22h-1.5v62.45h7.21v-347.29h6.22v347.29h9.11v-347.29h12.43v347.29h14.03v-347.29h2.49v347.29h6.02v-347.29h2.49v347.29h3.96v-356.13h-152.02v-231.02ZM1016.06,853h-6.22v-347.58h6.22v347.58ZM1027.94,853h-6.22v-347.58h6.22v347.58ZM1154.06,496.59h-116.66v-168.45h116.66v168.45Z"/>
        <rect class="cls-1" x="1102.9" y="790.26" width="5.88" height="62.45"/>
        <rect class="cls-1" x="1080.25" y="790.26" width="11.19" height="62.45"/>
        <rect class="cls-1" x="1115" y="790.26" width="17.49" height="62.45"/>
        <rect class="cls-1" x="1093.93" y="790.26" width="6.49" height="62.45"/>
      </g>
      <g>
        <polygon class="cls-1" points="2254.55 789.53 2237.06 792.17 2237.06 850.68 2254.55 848.06 2254.55 789.53"/>
        <path class="cls-1" d="M2219.21,853v-347.58h1.94v-180.2l128.45,26.98v422.96l-1.78.27v58.69l5.66-.85v-327.85h6.22v326.93l10.08-1.51v-325.42h6.22v324.49l5.66-.85v-323.64h6.22v322.72l10.96-1.64v-321.08h6.22v320.15l5.53-.83v-319.32h1.49v-198.8h0v-.1s-190.9-40.72-190.9-40.72l-62.45-.12v587.26h5.89s0-347.52,0-347.52h13.18v347.55h6.14s0-347.55,0-347.55h2.49v347.57h1.87s0-347.57,0-347.57h16.7v347.58h-15.04l31.21.06.39-.06h-2.33ZM2218.76,853h-2.49v-347.58h2.49v347.58Z"/>
        <polygon class="cls-1" points="2266.64 787.7 2260.76 788.59 2260.76 847.13 2266.64 846.26 2266.64 787.7"/>
        <polygon class="cls-1" points="2226.66 852.23 2226.66 793.74 2225.43 793.93 2225.43 852.42 2226.66 852.23"/>
        <polygon class="cls-1" points="2234.57 792.55 2232.88 792.8 2232.88 851.3 2234.57 851.05 2234.57 792.55"/>
        <polygon class="cls-1" points="2341.61 776.37 2328.98 778.28 2328.98 836.94 2341.61 835.05 2341.61 776.37"/>
        <polygon class="cls-1" points="2322.76 779.22 2315.24 780.36 2315.24 838.99 2322.76 837.87 2322.76 779.22"/>
        <polygon class="cls-1" points="2289.29 784.28 2278.1 785.97 2278.1 844.54 2289.29 842.87 2289.29 784.28"/>
        <polygon class="cls-1" points="2275.62 786.34 2269.13 787.32 2269.13 845.88 2275.62 844.91 2275.62 786.34"/>
        <polygon class="cls-1" points="2309.02 781.3 2291.78 783.9 2291.78 842.5 2309.02 839.92 2309.02 781.3"/>
      </g>
      <g>
        <polygon class="cls-1" points="1985.26 620.53 1965.59 555.38 1965.59 762.23 1985.26 827.41 1985.26 620.53"/>
        <polygon class="cls-1" points="1955.31 728.17 1963.1 754 1963.1 547.14 1955.31 521.33 1955.31 728.17"/>
        <polygon class="cls-1" points="1992.98 646.1 1987.74 628.76 1987.74 835.65 1992.98 853 2005.94 853 2005.94 505.42 2012.16 505.42 2012.16 853 2017.68 853 2017.68 505.42 2030.11 505.42 2030.11 853 2035.64 853 2035.64 505.42 2038.12 505.42 2038.12 853 2044.15 853 2044.15 505.42 2046.63 505.42 2046.63 853 2055.43 853 2055.43 265.74 1992.98 265.74 1992.98 646.1"/>
        <path class="cls-1" d="M1875.49,853v-347.58h2.66v-32.91l14.52,48.12v-15.21h6.22v35.81l5.53,18.31v-54.12h12.43v95.31l5.66,18.76v-114.07h6.22v134.66l5.66,18.76v-153.42h6.22v174.01l8.49,28.14v-202.15h1.41l-72.35-239.62-62.45-.23.03.11h-.03v587.26h.91s0-347.52,0-347.52h6.22v347.53l12.63.02v-347.55h6.22v347.57l36.49.07v-.06h-2.66ZM1853.54,853h-6.22v-347.58h6.22v347.58ZM1869.83,853h-6.22v-347.58h6.22v347.58Z"/>
      </g>
      <g>
        <polygon class="cls-1" points="1651.82 505.42 1651.82 852.88 1665.41 852.88 1665.41 505.42 1669.32 505.42 1671.62 505.42 1671.8 505.42 1671.8 852.88 1677.77 852.88 1677.77 505.42 1680.25 505.42 1680.25 852.88 1680.94 852.88 1680.94 505.42 1686.4 505.42 1687.16 505.42 1698.83 505.42 1698.83 852.88 1701.39 852.88 1701.39 505.42 1712.43 505.42 1712.43 265.63 1649.97 265.63 1649.97 505.42 1651.82 505.42"/>
        <rect class="cls-1" x="1583.61" y="790.26" width="7.52" height="62.45"/>
        <rect class="cls-1" x="1564.77" y="790.26" width="12.63" height="62.45"/>
        <rect class="cls-1" x="1536.6" y="790.26" width="10.08" height="62.45"/>
        <rect class="cls-1" x="1552.89" y="790.26" width="5.66" height="62.45"/>
        <polygon class="cls-1" points="1477.71 505.42 1477.71 852.84 1483.37 852.85 1483.37 505.42 1495.8 505.42 1495.8 852.87 1501.33 852.88 1501.33 505.42 1507.54 505.42 1507.54 852.89 1518.51 852.91 1518.51 505.42 1524.72 505.42 1524.72 852.92 1530.38 852.93 1530.38 505.42 1534.26 505.42 1534.26 265.69 1471.81 265.57 1471.81 505.42 1477.71 505.42"/>
        <rect class="cls-1" x="1639.73" y="790.26" width="5.88" height="62.45"/>
        <rect class="cls-1" x="1597.35" y="790.26" width="17.24" height="62.45"/>
        <rect class="cls-1" x="1617.08" y="790.26" width="11.19" height="62.45"/>
        <rect class="cls-1" x="1630.76" y="790.26" width="6.49" height="62.45"/>
      </g>
      <path class="cls-1" d="M2694.74,265.68h-118.15l-61.26-.11v239.85h2.98v347.41h5.53s0-347.41,0-347.41h12.43v347.44h5.53s0-347.44,0-347.44h2.49v347.46h6.02s0-347.46,0-347.46h2.49v347.47l14.03.03v-347.5h12.43v53.62h9.11v-53.62h6.22v53.62h7.21v-53.62h6.22v53.62h4.52v-53.62h6.22v53.62h9.36v-53.62h6.22v53.62h7.68v-53.62h12.43v53.62h5.83v-53.62h2.49v53.62h8.01v-53.62h12.43v53.62h11.13v-53.62h14.85v347.58h-14.41v.06h62.45V265.68h-62.45ZM2694.74,496.59h-116.96v-168.45h116.96v168.45ZM2727.73,853h-12.43v-347.58h12.43v347.58ZM2739.03,853h-6.22v-347.58h6.22v347.58ZM2748.18,853h-6.22v-347.58h6.22v347.58Z"/>
      <path class="cls-1" d="M3443.5,265.8h-178.77l-61.26-.11v239.74h2.46v347.52h7.94s0-347.52,0-347.52h24.17v347.58h-3.32l31.21.06v-293.9h2.66v-53.73h12.43v53.73h9.11v-53.73h6.22v53.73h7.21v-53.73h6.22v53.73h4.52v-53.73h6.22v53.73h9.36v-53.73h6.22v53.73h7.68v-53.73h12.43v53.73h5.83v-53.73h2.49v53.73h8.01v-53.73h12.43v347.58h-2.06v.17h62.45V265.8h-1.84ZM3247.66,853h-4.1v-347.58h4.1v347.58ZM3254.55,853h-2.49v-347.58h2.49v347.58ZM3261.78,853h-6.22v-347.58h6.22v347.58ZM3382.88,496.7h-116.96v-168.45h116.96v168.45ZM3408.63,853h-12.43v-347.58h12.43v347.58ZM3426.68,853h-2.49v-347.58h2.49v347.58ZM3440.8,853h-6.22v-347.58h6.22v347.58Z"/>
      <path class="cls-1" d="M3010.79,853v-347.58h.77v-177.29h88.64v-62.45h-239.73v62.45h88.64v532.04l62.45.12v-7.29h-.77ZM2962.53,853h-11.12v-347.58h11.12v347.58ZM2970.89,853h-7.61v-347.58h7.61v347.58ZM2984.21,853h-6.82v-347.58h6.82v347.58ZM2994.49,853h-3.43v-347.58h3.43v347.58Z"/>
    </g>
    <polygon class="cls-2" points="1649.98 265.68 1649.98 790.32 1534.26 790.32 1534.26 265.74 1471.81 265.63 1471.81 790.32 1471.81 852.77 1471.81 852.88 1534.26 853 1534.26 852.77 1649.98 852.77 1649.98 852.94 1712.43 852.94 1712.43 852.77 1712.43 790.32 1712.43 265.68 1649.98 265.68"/>
    <polygon class="cls-9" points="3100.2 265.74 2860.47 265.74 2860.47 328.19 2949.11 328.19 2949.11 860.23 3011.56 860.35 3011.56 328.19 3100.2 328.19 3100.2 265.74"/>
    <path class="cls-8" d="M869.84,265.74h-178.77l-61.26-.11v587.26l62.45.12v-293.9h116.96v294.01h62.45V265.74h-1.84ZM692.26,496.64v-168.45h116.96v168.45h-116.96Z"/>
    <path class="cls-4" d="M1368.54,496.64h-152.02v-231.02h-62.45v.11h-179.12v62.45h0v462.12h0v62.45h0v.23l62.45.12v-.34h331.14v-293.67h0v-62.45ZM1037.4,328.19h116.66v168.45h-116.66v-168.45ZM1306.08,790.32h-268.68v-231.22h268.68v231.22Z"/>
    <polygon class="cls-5" points="1992.98 265.8 1992.98 646.15 1878.15 265.85 1815.7 265.63 1815.73 265.74 1815.7 265.74 1815.7 853 1878.15 853.11 1878.15 472.57 1992.98 853.05 2055.43 853.05 2055.43 265.8 1992.98 265.8"/>
    <path class="cls-6" d="M2412.06,306.57l-190.9-40.72-62.45-.12v587.26l62.45.12,190.9-28.53V306.68h0v-.1ZM2221.15,325.28l128.45,26.98v422.96l-128.45,19.41v-469.35Z"/>
    <path class="cls-7" d="M2755.36,265.74h-178.77l-61.26-.11v587.26l62.45.12v-293.9h116.96v294.01h62.45V265.74h-1.84ZM2577.78,496.64v-168.45h116.96v168.45h-116.96Z"/>
    <path class="cls-3" d="M3443.5,265.85h-178.77l-61.26-.11v587.26l62.45.12v-293.9h116.96v294.01h62.45V265.85h-1.84ZM3265.92,496.76v-168.45h116.96v168.45h-116.96Z"/>
  </g>
</svg>