<svg xmlns="http://www.w3.org/2000/svg" viewBox="0 0 79.37507 28.65174">
  <g transform="translate(-36.339251,-101.1871)" id="Brut.">
    <path
      d="m 36.339251,101.1871 h 12.576896 q 2.279562,0 3.969582,0.55024 1.729324,0.51094 2.829802,1.49351 2.24026,2.00444 2.24026,5.26657 0,2.16166 -1.218387,3.57656 -1.179084,1.3756 -3.183527,2.04374 v 0.11791 q 2.358168,0.66815 3.773069,2.51538 1.454203,1.84723 1.454203,4.44122 0,2.00444 -0.628844,3.41934 -0.589542,1.3756 -1.847232,2.43678 -1.218387,1.06117 -3.026316,1.65071 -1.807928,0.58954 -4.048188,0.58954 H 36.339251 Z m 5.698906,23.38517 h 6.563567 q 2.083049,0 3.22283,-1.02187 1.179084,-1.06118 1.179084,-2.7905 0,-2.00445 -1.296992,-3.02632 -1.296993,-1.02187 -3.262133,-1.02187 h -6.406356 z m 6.170539,-12.06596 q 1.886535,0 3.026316,-0.86466 1.139781,-0.86466 1.139781,-2.51538 0,-1.57211 -1.100478,-2.43677 -1.061176,-0.86467 -2.94771,-0.86467 h -6.288448 v 6.68148 z" />
    <path
      d="m 66.848048,112.3491 h 0.117909 q 0.903964,-1.72932 2.043745,-2.59399 1.139781,-0.86466 2.908407,-0.86466 0.825359,0 1.25769,0.15721 v 4.67704 h -0.117908 q -2.633288,-0.27512 -4.323308,1.13978 -1.690021,1.4149 -1.690021,4.59842 v 9.8257 h -5.34518 v -20.16233 h 5.148666 z" />
    <path
      d="m 88.250879,129.2886 v -2.35816 h -0.117908 q -1.021873,1.37559 -2.358168,2.16165 -1.296993,0.74675 -3.419344,0.74675 -3.380041,0 -5.187969,-1.96514 -1.807929,-1.96514 -1.807929,-5.30587 v -13.44156 h 5.305878 v 12.53759 q 0,1.76863 0.786056,2.71189 0.825359,0.94327 2.554682,0.94327 1.886534,0 2.94771,-1.25769 1.100478,-1.29699 1.100478,-3.30143 v -11.63363 h 5.345181 v 20.16233 z" />
    <path
      d="m 95.677879,109.12627 h 2.790499 v -6.28845 h 5.227272 v 6.28845 h 3.45865 v 3.53725 h -3.45865 v 10.69036 q 0,1.13978 0.55024,1.57211 0.55024,0.43233 1.4542,0.43233 h 1.02188 q 0.27512,0 0.55023,-0.0393 v 3.93028 q -0.39302,0.0393 -0.86466,0.0393 -0.43233,0.0393 -1.06117,0.0393 -0.62885,0 -1.4149,0 -0.98257,0 -1.96514,-0.19652 -0.94327,-0.23581 -1.72933,-0.78605 -0.786052,-0.55024 -1.296989,-1.49351 -0.471633,-0.94327 -0.471633,-2.35817 v -11.83014 h -2.790499 z" />
    <path d="m 109.97611,123.5897 h 5.73821 v 5.6989 h -5.73821 z" />
  </g>
</svg>